# xmcd
# 
# Track frame offsets:
#     150
#     24887
#     46092
#     58345
#     77605
#     94717
#     111865
#     131207
#     150822
#     162127
#     170392
#     190875
#     210977
#     227072
#     245680
# 
# Disc length: 3559
# 
# Revision: 2
# Processed by: cddbd v1.5.2PL0 Copyright (c) Steve Scherf et al.
# Submitted via: BonkEnc v1.0
# 
DISCID=b40de50f
DTITLE=財津和夫 - Best Selection
DYEAR=1999
DGENRE=New Age
TTITLE0=心の旅
TTITLE1=Everlasting
TTITLE2=銀の指環
TTITLE3=急行の停まる街
TTITLE4=ぼくがつくった愛のうた
TTITLE5=1962で抱きしめたい
TTITLE6=約束の海
TTITLE7=一人の部屋
TTITLE8=ハーモニー
TTITLE9=バタートーストかじって
TTITLE10=誰が許すの 君のわがままを
TTITLE11=メルディング
TTITLE12=魔法の黄色い靴
TTITLE13=時が経てば
TTITLE14=サボテンの花
EXTD=
EXTT0=
EXTT1=
EXTT2=
EXTT3=
EXTT4=
EXTT5=
EXTT6=
EXTT7=
EXTT8=
EXTT9=
EXTT10=
EXTT11=
EXTT12=
EXTT13=
EXTT14=
PLAYORDER=
